<svg width="14" height="14" viewBox="0 0 14 14" fill="none" xmlns="http://www.w3.org/2000/svg">
<g clip-path="url(#clip0_52_67)">
<path d="M3.8057 0C3.93024 0 4.04968 0.0494746 4.13775 0.13754C4.22581 0.225605 4.27529 0.345048 4.27529 0.469591V1.34773H9.31802V0.475628C9.31802 0.351085 9.3675 0.231643 9.45556 0.143578C9.54363 0.0555122 9.66307 0.0060376 9.78761 0.0060376C9.91216 0.0060376 10.0316 0.0555122 10.1197 0.143578C10.2077 0.231643 10.2572 0.351085 10.2572 0.475628V1.34773H12.0752C12.4309 1.34773 12.7721 1.48899 13.0237 1.74046C13.2753 1.99193 13.4167 2.33302 13.4169 2.68874V12.0759C13.4167 12.4316 13.2753 12.7727 13.0237 13.0241C12.7721 13.2756 12.4309 13.4169 12.0752 13.4169H1.34169C0.985967 13.4169 0.644805 13.2756 0.393208 13.0241C0.141612 12.7727 0.000177861 12.4316 0 12.0759L0 2.68874C0.000177861 2.33302 0.141612 1.99193 0.393208 1.74046C0.644805 1.48899 0.985967 1.34773 1.34169 1.34773H3.33611V0.46892C3.33629 0.344493 3.38584 0.225223 3.47388 0.137303C3.56193 0.0493824 3.68127 -1.26966e-07 3.8057 0ZM0.939182 5.19368V12.0759C0.939182 12.1287 0.949593 12.1811 0.969821 12.2299C0.990049 12.2787 1.0197 12.3231 1.05707 12.3605C1.09445 12.3979 1.13882 12.4275 1.18766 12.4477C1.23649 12.468 1.28883 12.4784 1.34169 12.4784H12.0752C12.1281 12.4784 12.1804 12.468 12.2292 12.4477C12.2781 12.4275 12.3224 12.3979 12.3598 12.3605C12.3972 12.3231 12.4268 12.2787 12.4471 12.2299C12.4673 12.1811 12.4777 12.1287 12.4777 12.0759V5.20307L0.939182 5.19368ZM4.47252 9.80707V10.9247H3.35422V9.80707H4.47252ZM7.26725 9.80707V10.9247H6.14963V9.80707H7.26725ZM10.0627 9.80707V10.9247H8.94436V9.80707H10.0627ZM4.47252 7.13912V8.25675H3.35422V7.13912H4.47252ZM7.26725 7.13912V8.25675H6.14963V7.13912H7.26725ZM10.0627 7.13912V8.25675H8.94436V7.13912H10.0627ZM3.33611 2.28624H1.34169C1.28883 2.28624 1.23649 2.29665 1.18766 2.31688C1.13882 2.3371 1.09445 2.36675 1.05707 2.40413C1.0197 2.4415 0.990049 2.48588 0.969821 2.53471C0.949593 2.58354 0.939182 2.63589 0.939182 2.68874V4.25516L12.4777 4.26456V2.68874C12.4777 2.63589 12.4673 2.58354 12.4471 2.53471C12.4268 2.48588 12.3972 2.4415 12.3598 2.40413C12.3224 2.36675 12.2781 2.3371 12.2292 2.31688C12.1804 2.29665 12.1281 2.28624 12.0752 2.28624H10.2572V2.90945C10.2572 3.03399 10.2077 3.15344 10.1197 3.2415C10.0316 3.32957 9.91216 3.37904 9.78761 3.37904C9.66307 3.37904 9.54363 3.32957 9.45556 3.2415C9.3675 3.15344 9.31802 3.03399 9.31802 2.90945V2.28624H4.27529V2.90341C4.27529 3.02796 4.22581 3.1474 4.13775 3.23546C4.04968 3.32353 3.93024 3.373 3.8057 3.373C3.68116 3.373 3.56171 3.32353 3.47365 3.23546C3.38558 3.1474 3.33611 3.02796 3.33611 2.90341V2.28624Z" fill="#4E43F1"/>
</g>
<defs>
<clipPath id="clip0_52_67">
<rect width="13.4169" height="13.4169" fill="white"/>
</clipPath>
</defs>
</svg>
