<svg width="15" height="14" viewBox="0 0 15 14" fill="none" xmlns="http://www.w3.org/2000/svg">
<path d="M6.99662 11.9259C3.91393 11.9259 1.40625 9.41817 1.40625 6.33548C1.40625 3.2528 3.91393 0.745117 6.99662 0.745117C10.0793 0.745117 12.587 3.2528 12.587 6.33548C12.587 9.41817 10.0793 11.9259 6.99662 11.9259ZM6.99662 1.54374C4.35317 1.54374 2.20487 3.69204 2.20487 6.33548C2.20487 8.97893 4.35317 11.1272 6.99662 11.1272C9.64006 11.1272 11.7884 8.97893 11.7884 6.33548C11.7884 3.69204 9.64006 1.54374 6.99662 1.54374Z" fill="#4E43F1"/>
<path d="M8.39458 9.17741C8.31911 9.17741 8.24364 9.16064 8.17655 9.11872L6.08017 7.86088C6.01836 7.82326 5.96734 7.77027 5.93207 7.70709C5.89681 7.6439 5.87849 7.57266 5.87891 7.5003V4.14608C5.87891 3.91129 6.0634 3.72681 6.29819 3.72681C6.53299 3.72681 6.71747 3.91129 6.71747 4.14608V7.26551L8.6126 8.39756C8.69066 8.4454 8.75099 8.51739 8.78446 8.60261C8.81792 8.68783 8.82269 8.78163 8.79804 8.8698C8.77339 8.95798 8.72066 9.03571 8.64786 9.09122C8.57505 9.14673 8.48613 9.17699 8.39458 9.17741Z" fill="#4E43F1"/>
</svg>
