<svg width="16" height="17" viewBox="0 0 16 17" fill="none" xmlns="http://www.w3.org/2000/svg">
<path d="M12.3798 2.88108H11.067V2.23994C11.067 2.03641 11.0085 1.87613 10.8915 1.75909C10.7745 1.64206 10.6193 1.58354 10.4259 1.58354C10.2224 1.58354 10.0621 1.64206 9.94505 1.75909C9.82801 1.87613 9.7695 2.03641 9.7695 2.23994V2.88108H5.86163V2.23994C5.86163 2.03641 5.80311 1.87613 5.68608 1.75909C5.56905 1.64206 5.40877 1.58354 5.20523 1.58354C5.01187 1.58354 4.85668 1.64206 4.73965 1.75909C4.62261 1.87613 4.5641 2.03641 4.5641 2.23994V2.88108H3.2513C2.70175 2.88108 2.23871 3.06935 1.86217 3.44589C1.48563 3.82243 1.29736 4.28547 1.29736 4.83501V13.9635C1.29736 14.5131 1.48563 14.9761 1.86217 15.3527C2.23871 15.7292 2.70175 15.9175 3.2513 15.9175H12.3798C12.9294 15.9175 13.3924 15.7292 13.769 15.3527C14.1455 14.9761 14.3338 14.5131 14.3338 13.9635V4.83501C14.3338 4.28547 14.1455 3.82243 13.769 3.44589C13.3924 3.06935 12.9294 2.88108 12.3798 2.88108ZM3.2513 4.19388H4.5641V4.83501C4.5641 5.03855 4.62261 5.19883 4.73965 5.31586C4.85668 5.4329 5.01187 5.49141 5.20523 5.49141C5.40877 5.49141 5.56905 5.4329 5.68608 5.31586C5.80311 5.19883 5.86163 5.03855 5.86163 4.83501V4.19388H9.7695V4.83501C9.7695 5.03855 9.82801 5.19883 9.94505 5.31586C10.0621 5.4329 10.2224 5.49141 10.4259 5.49141C10.6193 5.49141 10.7745 5.4329 10.8915 5.31586C11.0085 5.19883 11.067 5.03855 11.067 4.83501V4.19388H12.3798C12.5732 4.19388 12.7284 4.25239 12.8454 4.36943C12.9625 4.48646 13.021 4.64165 13.021 4.83501V6.78895H2.61016V4.83501C2.61016 4.64165 2.66868 4.48646 2.78571 4.36943C2.90274 4.25239 3.05794 4.19388 3.2513 4.19388ZM12.3798 14.6047H3.2513C3.05794 14.6047 2.90274 14.5462 2.78571 14.4291C2.66868 14.3121 2.61016 14.1569 2.61016 13.9635V8.10175H13.021V13.9635C13.021 14.1569 12.9625 14.3121 12.8454 14.4291C12.7284 14.5462 12.5732 14.6047 12.3798 14.6047Z" fill="white"/>
</svg>
