<svg width="60" height="60" viewBox="0 0 60 60" fill="none" xmlns="http://www.w3.org/2000/svg">
<path d="M55.7428 16.064L57.2541 15.5446C58.0569 15.2688 58.5757 14.542 58.5757 13.6933C58.5757 12.8446 58.057 12.1178 57.2541 11.842L53.9847 10.7185C53.9198 10.6962 53.8678 10.6442 53.8455 10.5792L52.7219 7.30971C52.4461 6.50699 51.7194 5.9883 50.8707 5.9883C50.8707 5.9883 50.8707 5.9883 50.8706 5.9883C50.0217 5.9883 49.295 6.50699 49.0192 7.30971L48.2306 9.60485C45.603 8.32838 42.6924 7.65566 39.7483 7.65566C37.9606 7.65566 36.2289 7.89981 34.5838 8.35438C32.8645 6.2053 30.6818 4.41996 28.2381 3.17053C25.4893 1.76523 22.5198 1.05264 19.4119 1.05264C14.571 1.05264 9.9337 2.84526 6.35424 6.10038C6.0002 6.42241 5.97409 6.97046 6.29612 7.32461C6.61827 7.67877 7.16643 7.70465 7.52036 7.38273C10.7801 4.41845 15.0033 2.78587 19.4119 2.78587C22.2427 2.78587 24.9468 3.43444 27.4489 4.71368C29.4826 5.7535 31.3171 7.20167 32.8137 8.93709C25.5247 11.7346 20.3364 18.8064 20.3364 27.0685C20.3364 30.9773 21.4987 34.6191 23.4944 37.6687C22.1675 37.9823 20.8042 38.1429 19.4259 38.144C19.4215 38.1439 19.4172 38.1434 19.4128 38.1434C19.4014 38.1434 19.39 38.1438 19.3784 38.1438C9.64575 38.1257 1.73323 30.2021 1.73323 20.4646C1.73323 16.5902 2.96312 12.9124 5.28969 9.82855C5.57787 9.44643 5.50184 8.903 5.11984 8.61483C4.7376 8.32665 4.19441 8.40256 3.906 8.78468C1.35065 12.1716 0 16.2105 0 20.4646C0 29.464 6.1555 37.052 14.4768 39.2411C13.1194 39.8612 11.9092 40.7187 11.0013 41.7472C9.61305 43.3197 9.00596 45.1643 9.24572 47.0818C9.57053 49.6789 9.66725 52.3128 8.19077 53.9855C6.99068 55.3448 4.76129 56.0341 1.56429 56.0341C1.08558 56.0341 0.697682 56.4221 0.697682 56.9007C0.697682 57.3793 1.08558 57.7673 1.56429 57.7673C5.33233 57.7673 7.92501 56.9054 9.49011 55.1326C11.4215 52.9446 11.3406 49.8669 10.9657 46.8668C10.743 45.0856 11.5688 43.7233 12.3007 42.8942C13.4399 41.6038 15.1608 40.6356 17.0224 40.1749L15.5763 41.621C15.0964 42.1008 14.8321 42.7387 14.8321 43.4173C14.8321 44.0959 15.0964 44.7338 15.5762 45.2135C16.0559 45.6933 16.6939 45.9575 17.3725 45.9575C18.051 45.9575 18.6889 45.6933 19.1687 45.2135L19.4128 44.9693L19.6569 45.2134C20.1366 45.6932 20.7747 45.9574 21.4532 45.9574C22.1317 45.9574 22.7697 45.6932 23.2495 45.2134C24.2399 44.2229 24.2399 42.6114 23.2495 41.621H23.2494L21.404 39.7756C22.4824 39.6656 23.547 39.4662 24.5888 39.1786C27.0832 42.2947 30.5155 44.6289 34.4547 45.7468C31.4634 47.0825 30.0907 49.5326 29.4716 51.6994C28.3673 55.5641 27.3472 56.7668 23.4897 56.2719C23.0147 56.2109 22.5808 56.5464 22.5198 57.0212C22.459 57.496 22.7945 57.9301 23.2691 57.991C23.8705 58.0681 24.4236 58.1072 24.9344 58.1072C26.5302 58.1072 27.7124 57.7256 28.6566 56.9277C29.4259 56.2776 30.259 55.2519 31.138 52.1756C32.0291 49.0568 34.1589 47.208 37.4796 46.6566L35.9119 48.2244C35.4322 48.7041 35.168 49.3421 35.168 50.0206C35.1679 50.6992 35.4321 51.3371 35.9119 51.8168C36.3916 52.2965 37.0296 52.5608 37.7082 52.5608C38.3867 52.5608 39.0246 52.2965 39.5044 51.8168L39.7486 51.5725L39.9927 51.8168C40.9834 52.8073 42.595 52.807 43.5852 51.8168C44.5756 50.8263 44.5756 49.2147 43.5852 48.2244C43.5852 48.2244 43.5852 48.2244 43.5851 48.2244L41.7389 46.3781C44.5415 46.0903 47.2532 45.1975 49.6768 43.7529C50.0881 43.5078 50.2227 42.9758 49.9776 42.5648C49.7325 42.1537 49.2003 42.0191 48.7895 42.2642C46.0666 43.8871 42.9437 44.7457 39.7576 44.7473C39.7558 44.7473 39.7541 44.7471 39.7525 44.7471C39.7512 44.7471 39.7499 44.7468 39.7487 44.7468C39.742 44.7468 39.7356 44.7472 39.7288 44.7472C29.9897 44.7365 22.0696 36.8103 22.0696 27.0687C22.0696 17.32 30.0003 9.38889 39.7483 9.38889C42.2712 9.38889 44.7665 9.93139 47.045 10.9629L44.4871 11.8419C43.6845 12.1177 43.1657 12.8444 43.1657 13.6932C43.1657 14.542 43.6842 15.2687 44.4871 15.5446L47.7566 16.6681C47.8224 16.6907 47.8732 16.7415 47.8959 16.8073L49.0194 20.0769C49.2953 20.8796 50.0221 21.3983 50.8708 21.3983C51.7195 21.3983 52.4463 20.8795 52.722 20.0769L53.8456 16.8072C53.8678 16.7424 53.9199 16.6904 53.9847 16.6681L54.033 16.6515C56.2549 19.6875 57.4268 23.2756 57.4268 27.0686C57.4268 32.131 55.2503 36.9586 51.4555 40.3136C51.0968 40.6305 51.0632 41.1782 51.3802 41.5368C51.5515 41.7306 51.7901 41.8293 52.0299 41.8293C52.2339 41.8293 52.4387 41.7577 52.6035 41.612C56.7703 37.9283 59.16 32.6274 59.16 27.0685C59.16 23.0837 57.9823 19.3039 55.7428 16.064ZM22.0238 43.988C21.8715 44.1404 21.6688 44.2244 21.4532 44.2244C21.2376 44.2244 21.0349 44.1404 20.8826 43.9881L20.0257 43.1311C19.8632 42.9685 19.6428 42.8773 19.4128 42.8773C19.1829 42.8773 18.9627 42.9685 18.8001 43.1311L17.9429 43.9881C17.7906 44.1405 17.588 44.2246 17.3724 44.2246C17.1567 44.2246 16.9541 44.1405 16.8017 43.9881C16.6493 43.8357 16.5653 43.6331 16.5653 43.4176C16.5653 43.2021 16.6493 42.9994 16.8018 42.8469L19.4128 40.2358L22.0239 42.8469C22.3384 43.1614 22.3384 43.6734 22.0238 43.988ZM42.3596 50.5913C42.0451 50.9058 41.5331 50.906 41.2183 50.5913L40.3614 49.7342C40.199 49.5717 39.9785 49.4804 39.7486 49.4804C39.5186 49.4804 39.2984 49.5717 39.1358 49.7342L38.2787 50.5913C38.1264 50.7437 37.9237 50.8277 37.7081 50.8277C37.4925 50.8277 37.2898 50.7437 37.1374 50.5913C36.985 50.4389 36.9011 50.2362 36.9011 50.0207C36.9011 49.8052 36.9851 49.6024 37.1375 49.45L39.7486 46.839L42.3596 49.45C42.6742 49.7646 42.6742 50.2766 42.3596 50.5913ZM52.2063 16.2441L51.0827 19.5136C51.0481 19.6141 50.9767 19.6651 50.8706 19.6651C50.7641 19.6651 50.6927 19.6141 50.6582 19.5136L49.5347 16.244C49.3371 15.6693 48.8941 15.2264 48.3195 15.029L45.05 13.9056C44.9495 13.871 44.8985 13.7996 44.8985 13.6933C44.8985 13.5871 44.9494 13.5157 45.05 13.4811L48.3194 12.3577C48.8941 12.1602 49.3371 11.7173 49.5347 11.1424L50.6582 7.87312C50.6927 7.77259 50.7641 7.72164 50.8704 7.72164C50.9766 7.72164 51.0481 7.77259 51.0827 7.87312L52.2062 11.1424C52.4037 11.7172 52.8465 12.1602 53.4214 12.3577L56.6908 13.4813C56.7914 13.5158 56.8424 13.5872 56.8424 13.6934C56.8424 13.7996 56.7915 13.8711 56.6908 13.9056L53.4214 15.029C52.8465 15.2265 52.4036 15.6695 52.2063 16.2441Z" fill="#4E43F1"/>
</svg>
