<svg width="60" height="60" viewBox="0 0 60 60" fill="none" xmlns="http://www.w3.org/2000/svg">
<path d="M59.0139 16.9589C58.9909 16.7657 58.9036 16.5861 58.7661 16.4484C56.1889 13.8712 47.5671 13.0771 40.2887 14.5397C42.253 11.5161 43.2018 8.15064 42.9144 5.10142C42.8921 4.8642 42.773 4.64662 42.5852 4.49999C42.3975 4.35324 42.1576 4.29015 41.9221 4.32597C39.0977 4.75304 36.2493 6.30221 33.8793 8.65802C33.4638 5.34384 32.1769 2.37817 30.2089 0.296553C30.0453 0.123461 29.8174 0.0253601 29.5793 0.0253601C29.341 0.0253601 29.1133 0.123461 28.9496 0.296553C26.9806 2.37909 25.6934 5.34639 25.2785 8.66241C22.9086 6.30671 20.0608 4.75767 17.2372 4.3306C17.0015 4.29478 16.7617 4.35787 16.5739 4.50461C16.3861 4.65136 16.2671 4.86894 16.2447 5.10616C15.9574 8.15365 16.9049 11.5173 18.8667 14.5399C15.7716 13.918 12.3322 13.6799 9.10782 13.8852C8.63014 13.9157 8.26767 14.3275 8.29806 14.8052C8.32844 15.2829 8.74026 15.6448 9.21806 15.615C13.0084 15.3733 17.1035 15.772 20.5035 16.707C23.0335 19.606 26.2466 21.5185 29.4494 22.0024L29.4495 22.0014C29.4924 22.0078 29.5354 22.0122 29.5782 22.0122C29.654 22.0122 29.7289 22.0013 29.8014 21.9818C32.972 21.4757 36.145 19.576 38.6482 16.7096C42.1123 15.7555 46.2784 15.3604 50.1284 15.6279C54.0459 15.8999 56.3617 16.7325 57.3237 17.4841C57.3983 18.3493 57.5562 20.8763 57.2097 23.9633C56.5008 30.2772 54.259 33.9725 52.5035 35.9605C49.5609 39.2926 45.3329 40.9977 39.9365 41.0284C39.9292 41.0284 39.9221 41.0284 39.9148 41.0284C38.5511 41.0284 37.2781 40.2468 36.667 39.0322C35.3096 36.3363 32.5937 34.6615 29.5794 34.6615C26.5646 34.6615 23.8487 36.3359 22.4915 39.0314C21.8771 40.2528 20.5942 41.0421 19.2219 41.0284C13.8289 40.9974 9.6026 39.2941 6.66038 35.9656C3.48591 32.3743 2.34925 27.4801 1.95477 24.0068C1.60292 20.9086 1.76192 18.3534 1.83645 17.4832C2.59029 16.8921 4.03915 16.3659 5.8884 16.0187C6.3588 15.9303 6.66847 15.4775 6.58019 15.0071C6.4918 14.5367 6.03884 14.2266 5.56856 14.3153C3.85936 14.6363 1.57415 15.2671 0.393586 16.4491C0.256314 16.5866 0.16919 16.7662 0.146196 16.9592C0.130944 17.0874 -0.222289 20.1475 0.227658 24.1562C0.828512 29.5094 2.60196 33.9876 5.3563 37.107C8.6395 40.8251 13.3013 42.7276 19.2119 42.7616C19.2226 42.7616 19.233 42.7616 19.2438 42.7616C21.2565 42.7615 23.1367 41.6059 24.0397 39.8107C25.1006 37.7037 27.2233 36.3947 29.5794 36.3947C31.9351 36.3947 34.0578 37.7041 35.1189 39.8115C36.0218 41.6064 37.9018 42.7617 39.9148 42.7616C39.9254 42.7616 39.9362 42.7616 39.9467 42.7616C43.9731 42.7387 47.4193 41.8479 50.2457 40.1075V50.289C50.2457 50.7676 50.6337 51.1556 51.1123 51.1556C51.5909 51.1556 51.9789 50.7676 51.9789 50.289V38.8692C52.6271 38.3359 53.2358 37.7497 53.8026 37.1079C53.8458 37.059 53.888 37.0088 53.9307 36.9592V57.4021H51.9789V53.7525C51.9789 53.2739 51.5909 52.8859 51.1123 52.8859C50.6337 52.8859 50.2457 53.2739 50.2457 53.7525V58.2687C50.2457 58.7473 50.6337 59.1353 51.1123 59.1353H54.7972C55.2758 59.1353 55.6639 58.7473 55.6639 58.2687V34.5498C57.3629 31.7183 58.4797 28.1853 58.932 24.1564C59.3822 20.1474 59.0291 17.0872 59.0139 16.9589ZM29.5792 2.22622C31.2907 4.44984 32.2924 7.65771 32.2924 11.0186C32.2924 14.3794 31.2908 17.5873 29.5792 19.8109C27.8675 17.5873 26.866 14.3794 26.866 11.0186C26.866 7.65771 27.8675 4.44984 29.5792 2.22622ZM21.2051 14.8371C19.1354 12.1885 17.9494 9.04337 17.9291 6.23692C20.5148 6.89243 23.0853 8.6088 25.1333 11.0663C25.1412 14.2573 25.9339 17.2534 27.3602 19.6301C25.1131 18.719 22.9207 17.0317 21.2051 14.8371ZM31.8021 19.6237C33.2267 17.2468 34.0181 14.2512 34.025 11.0611C36.0731 8.60371 38.6437 6.88758 41.23 6.2323C41.2097 9.0391 40.0233 12.1839 37.9528 14.8326C36.2392 17.0257 34.0484 18.7123 31.8021 19.6237Z" fill="#4E43F1"/>
<path d="M33.1968 24.0163C32.6193 24.2329 32.1606 24.6617 31.9049 25.2241C31.3792 26.3824 31.8936 27.754 33.0517 28.2813C33.0524 28.2815 33.0529 28.2819 33.0536 28.2821C33.3562 28.419 33.6768 28.4885 34.0064 28.4885C34.9099 28.4885 35.7361 27.9567 36.1116 27.1327C36.3663 26.5712 36.3872 25.944 36.1703 25.3666C35.9532 24.789 35.524 24.3307 34.9635 24.0766C34.4021 23.821 33.7746 23.7996 33.1968 24.0163ZM34.534 26.4154C34.4399 26.622 34.2329 26.7554 34.0065 26.7554C33.9252 26.7554 33.8452 26.738 33.7687 26.7035C33.4801 26.5713 33.352 26.2292 33.4828 25.9408C33.5467 25.8003 33.6613 25.693 33.8055 25.6389C33.9494 25.5849 34.1055 25.5902 34.2467 25.6545C34.3868 25.7179 34.4938 25.8322 34.5478 25.9762C34.6021 26.1202 34.5969 26.2766 34.534 26.4154Z" fill="#4E43F1"/>
<path d="M47.0648 22.11C47.0819 22.1164 47.0993 22.1222 47.117 22.1274C47.3314 22.191 47.5526 22.2233 47.7746 22.2233C48.7896 22.2233 49.6998 21.5438 49.988 20.572C50.164 19.9805 50.0991 19.3559 49.8053 18.8133C49.5116 18.2708 49.0242 17.8751 48.4327 17.6991C47.8409 17.5229 47.216 17.588 46.6735 17.8823C46.1311 18.1763 45.736 18.664 45.5611 19.2544C45.3851 19.8464 45.4501 20.4711 45.7443 21.0138C46.0295 21.5398 46.497 21.9275 47.0648 22.11ZM47.2225 19.7477C47.2661 19.6005 47.3644 19.479 47.4995 19.4058C47.6349 19.3324 47.7907 19.3165 47.9384 19.3602C48.0863 19.4042 48.2081 19.503 48.2814 19.6385C48.3548 19.7739 48.3709 19.9298 48.3267 20.0784C48.2418 20.3644 47.9348 20.5467 47.6375 20.4734C47.6283 20.4703 47.6189 20.4674 47.6096 20.4646C47.4624 20.4211 47.3409 20.3227 47.2677 20.1877C47.1944 20.0524 47.1783 19.8965 47.2225 19.7477Z" fill="#4E43F1"/>
<path d="M37.6534 19.6033C37.0406 19.5289 36.4358 19.6974 35.9509 20.0778C35.465 20.4584 35.1564 21.0054 35.0821 21.6181C35.0078 22.2307 35.1767 22.8354 35.5575 23.3208C35.9973 23.883 36.6597 24.2054 37.3752 24.2054C37.8974 24.2054 38.3899 24.0351 38.7975 23.7147C39.2839 23.3348 39.5927 22.7879 39.6672 22.175C39.7416 21.563 39.5735 20.9583 39.1929 20.4711C38.8123 19.9859 38.2656 19.6778 37.6534 19.6033ZM37.9469 21.9659C37.9283 22.1185 37.8516 22.2546 37.7286 22.3506C37.6005 22.4512 37.4658 22.4724 37.3752 22.4724C37.1964 22.4724 37.0314 22.3923 36.9223 22.2526C36.922 22.2522 36.9215 22.2516 36.9211 22.2511C36.8262 22.1302 36.7841 21.9794 36.8026 21.8266C36.8211 21.6738 36.8982 21.5373 37.02 21.4419C37.1221 21.3618 37.2455 21.3194 37.3735 21.3194C37.3969 21.3194 37.4206 21.3208 37.4442 21.3237C37.5973 21.3423 37.7341 21.4195 37.8283 21.5395C37.9234 21.6612 37.9655 21.8126 37.9469 21.9659Z" fill="#4E43F1"/>
<path d="M42.3326 21.9485C42.4733 21.9485 42.6188 21.9345 42.7671 21.9067C44.0172 21.6685 44.8406 20.457 44.6024 19.2046C44.3625 17.9535 43.1503 17.1306 41.9006 17.3702C41.2944 17.4855 40.7695 17.8301 40.4228 18.3407C40.0759 18.8513 39.9489 19.4662 40.0652 20.0723C40.2727 21.1595 41.226 21.9485 42.3326 21.9485ZM41.8563 19.3145C41.9427 19.1873 42.0734 19.1013 42.2256 19.0724C42.2621 19.0655 42.2984 19.0622 42.3342 19.0622C42.6051 19.0622 42.8474 19.2546 42.9001 19.5297C42.9595 19.8423 42.7544 20.1449 42.4448 20.2039C42.4037 20.2117 42.366 20.2156 42.3326 20.2156C42.0568 20.2156 41.8191 20.0186 41.7674 19.7473C41.7674 19.747 41.7673 19.7466 41.7672 19.7462C41.7382 19.595 41.7699 19.4417 41.8563 19.3145Z" fill="#4E43F1"/>
<path d="M23.2075 20.0784C22.7221 19.6975 22.1174 19.5287 21.5044 19.6033C20.8923 19.6777 20.3455 19.9858 19.9639 20.4725C19.1794 21.4767 19.3572 22.9311 20.3581 23.7131C20.7678 24.0352 21.2604 24.2055 21.7826 24.2055C22.4988 24.2055 23.1616 23.8826 23.6003 23.3209C23.9812 22.8354 24.1501 22.2308 24.0758 21.6182C24.0014 21.0054 23.6928 20.4584 23.2075 20.0784ZM22.2356 22.2526C22.1265 22.3923 21.9614 22.4724 21.7825 22.4724C21.692 22.4724 21.5571 22.4512 21.427 22.349C21.3062 22.2546 21.2294 22.1185 21.2108 21.9659C21.1921 21.8126 21.2343 21.6612 21.3283 21.5408C21.4235 21.4195 21.5603 21.3424 21.7134 21.3237C21.7371 21.3208 21.7607 21.3194 21.7842 21.3194C21.9122 21.3194 22.0356 21.3618 22.1383 21.4423C22.2596 21.5373 22.3366 21.6738 22.3552 21.8266C22.3738 21.9794 22.3317 22.1302 22.2356 22.2526Z" fill="#4E43F1"/>
<path d="M22.9876 25.3666C22.7707 25.944 22.7915 26.5712 23.0469 27.1337C23.4217 27.9566 24.2478 28.4885 25.1514 28.4885C25.4811 28.4885 25.8016 28.419 26.1062 28.2813C27.2642 27.754 27.7787 26.3825 27.2527 25.2236C26.9972 24.6617 26.5385 24.2331 25.961 24.0164C25.3831 23.7996 24.7557 23.821 24.1957 24.076C23.6337 24.3307 23.2047 24.7891 22.9876 25.3666ZM24.6099 25.9762C24.664 25.8322 24.771 25.718 24.9126 25.6539C24.9885 25.6193 25.0692 25.602 25.1502 25.602C25.2182 25.602 25.2866 25.6143 25.3524 25.639C25.4966 25.6931 25.6113 25.8003 25.6748 25.9403C25.8062 26.2296 25.6774 26.5722 25.3899 26.7032C25.3132 26.7379 25.233 26.7555 25.1514 26.7555C24.9251 26.7555 24.7181 26.622 24.6245 26.4166C24.5609 26.2767 24.5557 26.1202 24.6099 25.9762Z" fill="#4E43F1"/>
<path d="M16.8254 21.9485C17.9323 21.9485 18.8861 21.159 19.0929 20.0722C19.209 19.4661 19.0821 18.8512 18.7352 18.3406C18.3885 17.8302 17.8636 17.4854 17.2586 17.3703C16.0076 17.13 14.7955 17.9534 14.5554 19.2057C14.3174 20.4568 15.1406 21.6683 16.3927 21.9068C16.5391 21.9345 16.6847 21.9485 16.8254 21.9485ZM16.2577 19.5309C16.3106 19.2549 16.5527 19.0623 16.8243 19.0623C16.8603 19.0623 16.8968 19.0656 16.9335 19.0727C17.0845 19.1015 17.2151 19.1873 17.3016 19.3145C17.388 19.4418 17.4197 19.595 17.3905 19.7471C17.3389 20.0185 17.1012 20.2154 16.8253 20.2154C16.7918 20.2154 16.7541 20.2115 16.715 20.2041C16.4036 20.1448 16.1985 19.8423 16.2577 19.5309Z" fill="#4E43F1"/>
<path d="M11.3833 22.2233C11.6052 22.2233 11.8265 22.191 12.0409 22.1274C12.0585 22.1222 12.0759 22.1164 12.093 22.11C12.6608 21.9275 13.1284 21.5398 13.4137 21.0138C13.708 20.4711 13.7729 19.8462 13.5972 19.2556C13.422 18.664 13.0268 18.1763 12.4845 17.8823C11.9417 17.588 11.317 17.5229 10.7251 17.6991C10.1338 17.8751 9.64622 18.2708 9.35252 18.8133C9.05869 19.3559 8.99388 19.9805 9.16961 20.571C9.45801 21.5439 10.3682 22.2233 11.3833 22.2233ZM10.8764 19.6385C10.9498 19.503 11.0717 19.4042 11.2194 19.3602C11.274 19.344 11.3295 19.3359 11.3848 19.3359C11.4794 19.3359 11.573 19.3595 11.6584 19.4057C11.7933 19.4789 11.8917 19.6004 11.9357 19.7487C11.9797 19.8964 11.9635 20.0522 11.89 20.1875C11.8169 20.3225 11.6955 20.4208 11.5483 20.4645C11.5389 20.4673 11.5295 20.4702 11.5203 20.4733C11.2236 20.5462 10.916 20.3647 10.8309 20.0773C10.787 19.9299 10.803 19.7739 10.8764 19.6385Z" fill="#4E43F1"/>
<path d="M35.3916 31.0894C35.3427 31.4254 35.4946 31.7591 35.7801 31.9428C37.3978 32.9842 39.2393 33.5127 41.0911 33.5126C42.4685 33.5126 43.8521 33.2199 45.1521 32.6282C48.1994 31.2413 50.3073 28.4311 50.7908 25.111C50.8396 24.775 50.6878 24.4413 50.4023 24.2576C47.5812 22.4415 44.0778 22.1852 41.0303 23.5722C37.9829 24.9592 35.875 27.7692 35.3916 31.0894ZM41.7482 25.1496C44.0829 24.0869 46.7436 24.1966 48.9741 25.4228C48.4338 27.9102 46.7689 29.9884 44.4341 31.0511C42.0994 32.1136 39.4388 32.0041 37.2083 30.7778C37.7485 28.2903 39.4134 26.2121 41.7482 25.1496Z" fill="#4E43F1"/>
<path d="M8.36651 25.1111C8.84993 28.4312 10.9579 31.2414 14.0052 32.6283C15.3052 33.22 16.6884 33.5127 18.0662 33.5127C19.9178 33.5127 21.7597 32.9842 23.3772 31.943C23.6627 31.7591 23.8145 31.4256 23.7656 31.0896C23.2822 27.7694 21.1743 24.9593 18.127 23.5723C15.0796 22.1854 11.576 22.4416 8.75496 24.2577C8.46945 24.4414 8.31752 24.7751 8.36651 25.1111ZM17.409 25.1496C19.7438 26.2121 21.4087 28.2905 21.949 30.7777C19.7186 32.0041 17.0579 32.1135 14.7231 31.051C12.3884 29.9883 10.7234 27.9101 10.1832 25.4227C12.4137 24.1965 15.0742 24.0869 17.409 25.1496Z" fill="#4E43F1"/>
</svg>
