<svg width="52" height="60" viewBox="0 0 52 60" fill="none" xmlns="http://www.w3.org/2000/svg">
<path d="M51.0582 15.4508C51.0517 14.9723 50.6583 14.5868 50.1801 14.5961C49.7017 14.6025 49.3189 14.9957 49.3255 15.4742C49.3646 18.3631 48.4983 21.1969 46.8718 23.5556L27.5134 4.19716C32.9964 0.401772 40.4611 1.02929 45.2502 5.81854C47.0305 7.59882 48.2941 9.82183 48.9044 12.2473C49.0033 12.6405 49.3564 12.9026 49.744 12.9026C49.814 12.9026 49.8851 12.894 49.956 12.8762C50.42 12.7595 50.7017 12.2886 50.585 11.8245C49.8983 9.09528 48.4773 6.59479 46.4757 4.5932C40.9984 -0.884121 32.4086 -1.51985 26.2155 2.99378C25.2423 2.38626 23.9429 2.50286 23.0975 3.34787C22.2525 4.193 22.1359 5.49253 22.7433 6.46559C20.8825 9.02652 19.8338 12.1314 19.7622 15.3119L13.9812 22.4633C13.5854 22.2164 13.1346 22.0916 12.6832 22.0927V9.0368C12.6832 7.53596 11.4622 6.31489 9.96137 6.31489H8.9459C7.44563 6.31489 6.22515 7.53596 6.22515 9.0368V11.769C6.22515 12.2475 6.61299 12.6355 7.09166 12.6355C7.57021 12.6355 7.95816 12.2475 7.95816 11.769V9.0368C7.95816 8.49145 8.40136 8.04791 8.94602 8.04791H9.96149C10.5067 8.04791 10.9504 8.49156 10.9504 9.0368V22.817L9.44306 24.3245C8.98126 24.7861 8.72702 25.4001 8.72702 26.0531C8.72702 26.706 8.98126 27.3199 9.44295 27.7816L9.57608 27.9147L7.95816 29.9162V15.2349C7.95816 14.7564 7.57033 14.3684 7.09166 14.3684C6.6131 14.3684 6.22515 14.7564 6.22515 15.2349V17.706H4.92793V15.6519C4.92793 14.4332 3.93661 13.4419 2.71798 13.4419H2.42178C1.20315 13.4419 0.211831 14.4332 0.211831 15.6519V21.4937C0.211831 22.7123 1.20315 23.7036 2.42178 23.7036H2.71798C3.93661 23.7036 4.92793 22.7122 4.92793 21.4937V19.4389H6.22503V32.0598L4.64676 34.0122C2.76432 36.3399 2.89121 39.6657 4.9121 41.843C3.90344 42.4013 2.75357 43.1345 1.83437 44.0381C0.32416 45.5228 -0.257941 47.1489 0.104355 48.8713C0.369 50.1298 1.22303 51.2607 2.44732 51.9742C3.33544 52.492 4.35762 52.7559 5.40556 52.7559C5.6776 52.7559 5.95138 52.737 6.22503 52.7012V58.2933C6.22503 58.7719 6.61287 59.1598 7.09154 59.1598C7.5701 59.1598 7.95805 58.7719 7.95805 58.2933V44.8964L9.06227 46.0007C9.6208 46.5592 10.2637 46.9846 10.9504 47.2778V58.2937C10.9504 58.7722 11.3382 59.1602 11.8169 59.1602C12.2954 59.1602 12.6834 58.7722 12.6834 58.2937V52.9785C17.3089 53.6597 19.2178 55.2361 19.2178 58.2937C19.2178 58.7722 19.6056 59.1602 20.0843 59.1602C20.563 59.1602 20.9508 58.7722 20.9508 58.2937C20.9508 55.8914 19.9657 54.0664 18.023 52.8693C16.7397 52.0786 15.0287 51.5523 12.6835 51.2289V47.7264C12.8868 47.7473 13.091 47.7585 13.2953 47.7585C14.6214 47.7585 15.9525 47.3175 17.058 46.4234L22.9203 41.6847L23.2162 41.9806C23.6779 42.4423 24.2919 42.6967 24.9447 42.6967C25.5978 42.6967 26.2117 42.4424 26.6734 41.9806L28.1905 40.4635H28.1904C28.6522 40.0018 28.9064 39.3878 28.9064 38.7349C28.9064 38.1916 28.7281 37.6767 28.4031 37.2527L35.7599 31.3067C38.9391 31.235 42.043 30.1866 44.6038 28.3262C45.011 28.5807 45.4747 28.71 45.9392 28.71C46.5851 28.71 47.2309 28.4642 47.7226 27.9726C48.5679 27.1273 48.6844 25.8273 48.0763 24.854C50.0488 22.1398 51.1037 18.8284 51.0582 15.4508ZM2.71798 21.9709H2.42178C2.15876 21.9709 1.94473 21.7568 1.94473 21.4938V15.652C1.94473 15.389 2.15876 15.1749 2.42178 15.1749H2.71798C2.981 15.1749 3.19503 15.3888 3.19503 15.652V18.5682C3.19503 18.5697 3.1948 18.571 3.1948 18.5727C3.1948 18.5743 3.19503 18.5757 3.19503 18.5772V21.4939C3.19503 21.7568 2.981 21.9709 2.71798 21.9709ZM35.8415 29.5683L21.5006 15.2274C21.5845 12.5568 22.4415 9.95335 23.9489 7.76582L43.3035 27.1204C41.1155 28.628 38.5119 29.4849 35.8415 29.5683ZM10.6683 25.5499L12.1854 24.0328C12.3241 23.8941 12.5062 23.8246 12.6885 23.8246C12.8708 23.8246 13.053 23.894 13.1916 24.0328L17.2991 28.1402C17.5765 28.4177 17.5765 28.8692 17.2991 29.1466L15.782 30.6637C15.5045 30.9413 15.0528 30.9411 14.7756 30.6637L10.6682 26.5562C10.5338 26.4218 10.4598 26.2432 10.4598 26.0531C10.4598 25.863 10.5338 25.6843 10.6683 25.5499ZM6.22503 50.9481C5.19985 51.1334 4.16774 50.9715 3.31984 50.4773C2.51816 50.0101 1.96415 49.2947 1.80016 48.5149C1.4055 46.639 2.80303 44.9183 6.18701 43.1256L6.22503 43.1637V50.9481ZM26.9648 39.238L25.4476 40.7552C25.3132 40.8896 25.1345 40.9636 24.9444 40.9636C24.7544 40.9636 24.5757 40.8897 24.4413 40.7552L20.3339 36.6477C20.0564 36.3703 20.0564 35.9188 20.3339 35.6413L21.8509 34.1243C21.9897 33.9855 22.172 33.9161 22.3542 33.9161C22.5365 33.9161 22.7187 33.9855 22.8574 34.1241L26.9648 38.2316C27.0992 38.366 27.1732 38.5446 27.1732 38.7347C27.1732 38.925 27.0991 39.1036 26.9648 39.238ZM27.1892 36.0053L24.0827 32.8988C23.1297 31.9459 21.5789 31.9457 20.6256 32.8988L19.1085 34.416C18.1555 35.369 18.1555 36.9199 19.1085 37.8731L21.6878 40.4524L15.9682 45.0758C14.2724 46.4472 11.8304 46.318 10.2877 44.7752L6.29483 40.7826C4.75215 39.2399 4.62295 36.7977 5.99448 35.1018L10.8082 29.147L13.5504 31.8891C14.027 32.3656 14.6529 32.6039 15.2789 32.6039C15.9049 32.6039 16.5308 32.3656 17.0075 31.889L18.5246 30.3719C19.4776 29.4188 19.4776 27.8679 18.5246 26.9147L15.2546 23.6448L20.7139 16.8914L34.1786 30.3561L27.1892 36.0053ZM46.4968 26.7472C46.1891 27.0548 45.6885 27.0546 45.3812 26.7472L24.323 5.68899C24.0154 5.38136 24.0154 4.88085 24.3229 4.57333C24.4768 4.41951 24.6788 4.34266 24.8809 4.34266C25.083 4.34266 25.285 4.41951 25.4388 4.57333L46.4968 25.6315C46.8045 25.939 46.8045 26.4395 46.4968 26.7472Z" fill="#4E43F1"/>
</svg>
