<svg width="60" height="60" viewBox="0 0 60 60" fill="none" xmlns="http://www.w3.org/2000/svg">
<path d="M52.3359 31.7337C52.3359 31.2807 52.2857 30.8285 52.1867 30.3901C51.888 29.0671 51.0413 28.2797 50.0837 27.9278C53.0654 17.4505 52.6143 9.97335 48.7375 5.69678C44.6402 1.17686 38.1961 1.86335 36.7652 2.08163C36.0391 1.77172 33.8319 0.90346 30.7982 0.388792C24.6554 -0.653254 20.0393 0.59563 17.2486 1.82683C11.7779 4.24037 8.70435 8.63561 8.11307 14.8903C7.66265 19.6559 8.72365 24.4387 9.5302 27.7945C8.39583 28.0467 7.31854 28.8609 6.97315 30.39C6.87424 30.8284 6.82397 31.2805 6.82397 31.7337C6.82397 34.948 9.33226 37.5859 12.494 37.7969C13.9736 43.2163 18.8738 47.2388 24.7208 47.3879V48.2969H22.8456C22.2861 48.2969 21.7268 48.3554 21.1836 48.4705C18.0712 49.1294 15.6467 51.571 15.0069 54.6906L14.3032 58.1191C14.2508 58.3742 14.3159 58.6392 14.4806 58.841C14.6452 59.0429 14.8918 59.16 15.1521 59.16H46.1609C46.6396 59.16 47.0276 58.7719 47.0276 58.2933V56.8686H47.2526C48.8638 56.8686 50.1746 55.5577 50.1746 53.9465V50.4491C50.1746 49.1045 49.2615 47.9699 48.0231 47.6309C48.7264 46.9751 49.2792 46.1488 49.6098 45.2C49.7673 44.7481 49.5287 44.254 49.0767 44.0965C48.6246 43.939 48.1306 44.1776 47.9731 44.6297C47.3689 46.3629 45.7295 47.5275 43.8932 47.5275C41.5109 47.5275 39.5728 45.5889 39.5728 43.2058C39.5728 40.8235 41.5109 38.8854 43.8932 38.8854C45.7297 38.8854 47.3693 40.0494 47.9731 41.782C48.1306 42.2339 48.6246 42.4728 49.0767 42.3152C49.5287 42.1577 49.7673 41.6636 49.6098 41.2116C49.0873 39.7122 48.0109 38.5173 46.6585 37.8222C46.6608 37.8137 46.6631 37.8054 46.6654 37.7971C49.8275 37.5862 52.3359 34.9482 52.3359 31.7337ZM50.6026 31.7338C50.6026 33.869 49.0542 35.648 47.0216 36.0103C47.0895 35.4692 47.1242 34.922 47.1242 34.3707V33.1065C47.4084 32.7932 48.0366 32.2306 48.6942 32.4958C49.1382 32.675 49.6431 32.4602 49.8221 32.0164C50.0012 31.5725 49.7865 31.0675 49.3427 30.8885C48.6264 30.5994 47.86 30.631 47.1323 30.967C47.215 29.9683 47.9802 29.5253 48.6416 29.4516C49.3419 29.3739 50.2475 29.6724 50.4959 30.7719C50.5668 31.0851 50.6026 31.4089 50.6026 31.7338ZM8.55737 31.7337C8.55737 31.4088 8.5933 31.0851 8.66402 30.7718C8.91223 29.6723 9.81838 29.374 10.5183 29.4515C11.1796 29.5252 11.9448 29.9682 12.0276 30.9669C11.3 30.631 10.5338 30.5994 9.81723 30.8884C9.37339 31.0673 9.1587 31.5724 9.3378 32.0163C9.51679 32.4601 10.0216 32.6749 10.4657 32.4957C11.123 32.2307 11.7513 32.7932 12.0357 33.1065V34.3707C12.0357 34.926 12.0708 35.4732 12.1387 36.0103C10.106 35.6482 8.55737 33.869 8.55737 31.7337ZM40.7602 48.3849V49.0641H40.5105C40.2954 49.0641 40.0865 49.0907 39.8864 49.1399C39.2812 48.8373 38.6406 48.6119 37.9756 48.4707C37.432 48.3555 36.8731 48.297 36.3144 48.297H34.4389V47.3878C35.9549 47.3498 37.4251 47.0544 38.8236 46.5087C39.3205 47.2692 39.9826 47.9125 40.7602 48.3849ZM39.6253 51.6824C39.6253 51.1944 40.0224 50.7974 40.5103 50.7974H40.7595V52.753H40.5103C40.0224 52.753 39.6253 52.3559 39.6253 51.8679V51.6824ZM34.9893 54.2298C35.1304 54.5218 35.2654 55.0531 35.1524 55.2913C35.1375 55.3228 35.092 55.4189 34.818 55.4843C33.9809 55.685 33.0091 54.6415 32.5796 54.06V53.6377C32.9839 53.0949 33.9708 52.0101 34.818 52.2131C35.0919 52.2785 35.1374 52.3745 35.1524 52.4061C35.2654 52.6442 35.1304 53.1755 34.9912 53.4636C34.8723 53.7034 34.873 53.9889 34.9893 54.2298ZM32.7055 49.1637C32.7055 50.0507 32.3259 50.8854 31.6854 51.471C31.2598 51.1189 30.7142 50.907 30.12 50.907H29.0407C28.4461 50.907 27.9004 51.1192 27.4747 51.4715C26.8345 50.8863 26.455 50.0526 26.4543 49.1663C26.4543 49.1654 26.4544 49.1646 26.4544 49.1637C26.4544 49.1622 26.4542 49.1607 26.4542 49.1592V47.3923H32.7055V49.1637ZM30.8464 53.3667V54.446C30.8464 54.8465 30.5205 55.1723 30.12 55.1723H29.0407C28.6402 55.1723 28.3143 54.8465 28.3143 54.446V53.3667C28.3143 52.9662 28.6402 52.6403 29.0407 52.6403H30.12C30.5205 52.6403 30.8464 52.9662 30.8464 53.3667ZM24.1714 53.4676C24.0303 53.1756 23.8953 52.6443 24.0083 52.4062C24.0232 52.3746 24.0688 52.2786 24.3426 52.2132C25.1795 52.013 26.1526 53.0573 26.5811 53.6374V54.06C26.1515 54.6414 25.1795 55.6844 24.3426 55.4843C24.0687 55.4189 24.0232 55.3228 24.0083 55.2913C23.8953 55.0531 24.0303 54.5219 24.1695 54.2339C24.2884 53.9941 24.2878 53.7086 24.1714 53.4676ZM16.7049 55.0392C17.2062 52.5951 19.1051 50.6824 21.543 50.1663C21.9685 50.0761 22.4068 50.0303 22.8457 50.0303H24.8014C24.8289 50.1814 24.8622 50.3308 24.9036 50.4775C24.5949 50.438 24.2726 50.4476 23.9394 50.5273C23.0409 50.7422 22.6268 51.2687 22.4378 51.6725C22.0713 52.4555 22.2802 53.3469 22.4572 53.8487C22.2801 54.3506 22.0713 55.2419 22.4378 56.0249C22.6268 56.4288 23.0407 56.9552 23.9394 57.17C24.151 57.2207 24.3582 57.2436 24.5604 57.2436C25.6022 57.2436 26.5066 56.631 27.1514 56.0183C27.603 56.56 28.2821 56.9057 29.0408 56.9057H30.1201C30.8787 56.9057 31.558 56.56 32.0095 56.0185C32.6542 56.6312 33.5586 57.2438 34.6006 57.2438C34.8025 57.2438 35.0101 57.2207 35.2214 57.1702C36.1201 56.9553 36.534 56.4288 36.723 56.025C37.0895 55.2421 36.8806 54.3507 36.7036 53.8489C36.8807 53.347 37.0895 52.4556 36.723 51.6727C36.534 51.2688 36.1201 50.7424 35.2214 50.5274C34.8877 50.4477 34.5652 50.4382 34.2562 50.4779C34.2976 50.331 34.331 50.1815 34.3585 50.0304H36.3145C36.7527 50.0304 37.1907 50.0762 37.616 50.1663C37.8353 50.2129 38.0512 50.2716 38.2632 50.341C38.0279 50.7337 37.8923 51.1925 37.8923 51.6825V51.8679C37.8923 53.3116 39.0669 54.4862 40.5106 54.4862H40.7603V57.4268H16.2149L16.7049 55.0392ZM44.0079 57.4268H42.4934V49.0955C42.7913 49.1663 43.0977 49.2149 43.4107 49.2397C43.2422 49.6086 43.1476 50.0178 43.1476 50.4491V53.9465C43.1476 55.2893 44.0584 56.4228 45.2945 56.7634V57.4267H44.0079V57.4268ZM48.4415 50.4491V53.9465C48.4415 54.602 47.9082 55.1353 47.2527 55.1353H46.0697C45.4141 55.1353 44.8809 54.602 44.8809 53.9465V50.4491C44.8809 49.7936 45.4141 49.2603 46.0697 49.2603H47.2527C47.9082 49.2603 48.4415 49.7937 48.4415 50.4491ZM37.8397 43.2058C37.8397 43.8059 37.9287 44.3853 38.092 44.9329C36.8211 45.4145 35.4826 45.659 34.1016 45.659H25.0574C18.833 45.659 13.7691 40.5951 13.7691 34.3707V26.8622C15.0909 26.6719 16.3898 26.4601 17.6403 26.2309C18.1111 26.1446 18.4228 25.6931 18.3365 25.2223C18.2503 24.7515 17.7984 24.4395 17.3279 24.5261C15.8675 24.7937 14.339 25.0373 12.7848 25.2502C12.3557 25.309 12.0358 25.6757 12.0358 26.1089V28.1491C11.8082 28.0247 11.5698 27.9269 11.328 27.8551C10.5397 24.5978 9.39408 19.7591 9.83872 15.0536C10.0824 12.4746 10.7918 10.2366 11.9468 8.4015C13.3007 6.25085 15.3198 4.57246 17.9483 3.41278C22.5921 1.36405 27.3133 1.56211 30.4563 2.08902C33.9 2.66632 36.2631 3.75389 36.286 3.76452C36.4512 3.84171 36.6378 3.86459 36.8171 3.83039C36.8844 3.81756 43.5937 2.59121 47.4616 6.86998C49.0303 8.60534 49.9573 11.0441 50.2165 14.1184C50.5249 17.7756 49.889 22.3591 48.3319 27.7445C47.9224 27.8044 47.508 27.9395 47.1244 28.1491V25.8684C47.1244 25.4389 46.8099 25.0742 46.385 25.0112C40.5622 24.1471 38.3434 17.0473 38.3219 16.9767C38.2341 16.6847 37.9993 16.4603 37.7036 16.3859C37.4078 16.3113 37.0947 16.3979 36.8792 16.6134C33.8153 19.6773 28.3633 22.1098 20.6747 23.8432C20.2078 23.9484 19.9146 24.4123 20.0199 24.8792C20.1251 25.3461 20.589 25.6392 21.0559 25.534C28.3333 23.8933 33.7325 21.6075 37.1341 18.7302C37.4684 19.5119 37.9912 20.575 38.7373 21.6747C40.5203 24.3027 42.8086 25.9876 45.3913 26.5856V34.3709C45.3913 35.3542 45.2643 36.3217 45.0167 37.258C44.6509 37.1889 44.2755 37.1522 43.8937 37.1522C40.5554 37.1521 37.8397 39.8678 37.8397 43.2058Z" fill="#371DDC"/>
<path d="M21.186 32.5126C22.0382 32.5126 22.729 31.3655 22.729 29.9506C22.729 28.5357 22.0382 27.3886 21.186 27.3886C20.3339 27.3886 19.6431 28.5357 19.6431 29.9506C19.6431 31.3655 20.3339 32.5126 21.186 32.5126Z" fill="#371DDC"/>
<path d="M37.9724 27.3886C37.1217 27.3886 36.4294 28.538 36.4294 29.9506C36.4294 31.3633 37.1217 32.5126 37.9724 32.5126C38.8232 32.5126 39.5154 31.3633 39.5154 29.9506C39.5154 28.538 38.8233 27.3886 37.9724 27.3886Z" fill="#371DDC"/>
<path d="M27.9618 34.0724H31.1967C31.6753 34.0724 32.0633 33.6844 32.0633 33.2058C32.0633 32.7272 31.6753 32.3392 31.1967 32.3392H27.9618C27.4832 32.3392 27.0952 32.7272 27.0952 33.2058C27.0952 33.6844 27.4832 34.0724 27.9618 34.0724Z" fill="#371DDC"/>
<path d="M30.5759 35.5821C29.9308 35.5907 29.227 35.5907 28.5819 35.5821C26.7121 35.5568 25.0973 35.5352 24.1704 36.4497C23.7219 36.8924 23.4944 37.4936 23.4944 38.2368C23.4944 39.3369 23.9961 40.4019 24.907 41.2355C24.9089 41.2372 24.9107 41.2387 24.9126 41.2404C24.916 41.2435 24.9196 41.2464 24.9231 41.2494C26.0778 42.2979 27.773 42.899 29.579 42.899C31.3831 42.899 33.0766 42.2989 34.2312 41.2525C34.235 41.2493 34.2387 41.2462 34.2424 41.2428C34.2452 41.2404 34.2481 41.2381 34.2509 41.2355C35.1618 40.4018 35.6636 39.3368 35.6636 38.2368C35.6636 37.4935 35.4361 36.8924 34.9876 36.4497C34.0605 35.5352 32.4456 35.5568 30.5759 35.5821ZM25.3877 37.6835C25.713 37.3626 26.6593 37.3075 27.7123 37.3075C27.9901 37.3075 28.2754 37.3113 28.5586 37.3151C29.2188 37.324 29.939 37.324 30.5992 37.3151C31.9564 37.297 33.3591 37.278 33.7701 37.6835C33.8097 37.7225 33.9302 37.8415 33.9302 38.2369C33.9302 38.7009 33.7659 39.0958 33.5516 39.4148C32.458 38.6953 31.0553 38.2936 29.5788 38.2936C28.1024 38.2936 26.6997 38.6953 25.6061 39.4148C25.3917 39.0958 25.2274 38.7009 25.2274 38.2369C25.2276 37.8415 25.3481 37.7225 25.3877 37.6835ZM27.0205 40.5964C27.756 40.2287 28.6421 40.0267 29.579 40.0267C30.5158 40.0267 31.4019 40.2287 32.1375 40.5964C31.4019 40.964 30.5158 41.166 29.579 41.166C28.6421 41.166 27.756 40.964 27.0205 40.5964Z" fill="#371DDC"/>
</svg>
