<svg width="17" height="17" viewBox="0 0 17 17" fill="none" xmlns="http://www.w3.org/2000/svg">
<path d="M5.12793 6.91992L8.46126 9.25326L11.7946 6.91992" stroke="white" stroke-width="1.5" stroke-linecap="round" stroke-linejoin="round"/>
<path d="M1.79443 12.2532V5.58651C1.79443 5.23289 1.93491 4.89375 2.18496 4.6437C2.43501 4.39365 2.77414 4.25317 3.12777 4.25317H13.7944C14.1481 4.25317 14.4872 4.39365 14.7372 4.6437C14.9873 4.89375 15.1278 5.23289 15.1278 5.58651V12.2532C15.1278 12.6068 14.9873 12.9459 14.7372 13.196C14.4872 13.446 14.1481 13.5865 13.7944 13.5865H3.12777C2.77414 13.5865 2.43501 13.446 2.18496 13.196C1.93491 12.9459 1.79443 12.6068 1.79443 12.2532Z" stroke="white" stroke-width="1.5"/>
</svg>
