<svg width="25" height="25" viewBox="0 0 25 25" fill="none" xmlns="http://www.w3.org/2000/svg">
<path d="M17.3799 2.83008H7.37988C4.61846 2.83008 2.37988 5.06865 2.37988 7.83008V17.8301C2.37988 20.5915 4.61846 22.8301 7.37988 22.8301H17.3799C20.1413 22.8301 22.3799 20.5915 22.3799 17.8301V7.83008C22.3799 5.06865 20.1413 2.83008 17.3799 2.83008Z" stroke="white" stroke-width="2" stroke-linecap="round" stroke-linejoin="round"/>
<path d="M16.3801 12.1999C16.5035 13.0321 16.3613 13.8821 15.9738 14.6289C15.5863 15.3757 14.9732 15.9813 14.2217 16.3596C13.4702 16.7378 12.6185 16.8695 11.7879 16.7358C10.9572 16.6022 10.1898 16.21 9.59492 15.6151C9 15.0201 8.60781 14.2528 8.47415 13.4221C8.34048 12.5914 8.47214 11.7398 8.8504 10.9883C9.22867 10.2367 9.83426 9.62363 10.5811 9.23613C11.3279 8.84863 12.1778 8.70648 13.0101 8.82989C13.859 8.95578 14.6449 9.35135 15.2518 9.9582C15.8586 10.565 16.2542 11.351 16.3801 12.1999Z" stroke="white" stroke-width="2" stroke-linecap="round" stroke-linejoin="round"/>
<path d="M17.8799 7.33008H17.8899" stroke="white" stroke-width="2" stroke-linecap="round" stroke-linejoin="round"/>
</svg>
