<svg width="17" height="17" viewBox="0 0 17 17" fill="none" xmlns="http://www.w3.org/2000/svg">
<g clip-path="url(#clip0_2_429)">
<path d="M8.46094 1.24805C7.54427 1.24805 6.67969 1.42513 5.86719 1.7793C5.0651 2.13346 4.36198 2.61263 3.75781 3.2168C3.15365 3.82096 2.67448 4.52409 2.32031 5.32617C1.96615 6.13867 1.78906 7.00325 1.78906 7.91992C1.78906 9.14909 2.10677 10.3158 2.74219 11.4199C3.3776 12.5241 4.08073 13.4928 4.85156 14.3262C5.6224 15.1595 6.33594 15.8262 6.99219 16.3262C7.65885 16.8262 8.01302 17.0918 8.05469 17.123C8.1276 17.1543 8.19792 17.1829 8.26562 17.209C8.33333 17.235 8.39844 17.248 8.46094 17.248C8.52344 17.248 8.58854 17.235 8.65625 17.209C8.72396 17.1829 8.79427 17.1543 8.86719 17.123C8.90885 17.0918 9.26302 16.8262 9.92969 16.3262C10.5859 15.8262 11.2995 15.1595 12.0703 14.3262C12.8411 13.4928 13.5443 12.5241 14.1797 11.4199C14.8151 10.3158 15.1328 9.14909 15.1328 7.91992C15.1328 7.00325 14.9557 6.13867 14.6016 5.32617C14.2474 4.52409 13.7682 3.82096 13.1641 3.2168C12.5599 2.61263 11.8568 2.13346 11.0547 1.7793C10.2422 1.42513 9.3776 1.24805 8.46094 1.24805ZM8.46094 15.7793C8.14844 15.5501 7.6901 15.1803 7.08594 14.6699C6.49219 14.1595 5.90365 13.5553 5.32031 12.8574C4.73698 12.1595 4.22656 11.3835 3.78906 10.5293C3.35156 9.68555 3.13281 8.81575 3.13281 7.91992C3.13281 7.19075 3.27344 6.49805 3.55469 5.8418C3.83594 5.19596 4.21615 4.63346 4.69531 4.1543C5.17448 3.67513 5.73698 3.29492 6.38281 3.01367C7.03906 2.73242 7.73177 2.5918 8.46094 2.5918C9.1901 2.5918 9.88281 2.73242 10.5391 3.01367C11.1849 3.29492 11.7474 3.67513 12.2266 4.1543C12.7057 4.63346 13.0859 5.19596 13.3672 5.8418C13.6484 6.49805 13.7891 7.19075 13.7891 7.91992C13.7891 8.81575 13.5703 9.68555 13.1328 10.5293C12.6953 11.3835 12.1849 12.1595 11.6016 12.8574C11.0182 13.5553 10.4297 14.1595 9.83594 14.6699C9.23177 15.1803 8.77344 15.5501 8.46094 15.7793ZM8.46094 5.24805C7.73177 5.24805 7.10417 5.51107 6.57812 6.03711C6.05208 6.56315 5.78906 7.19075 5.78906 7.91992C5.78906 8.64909 6.05208 9.27669 6.57812 9.80273C7.10417 10.3288 7.73177 10.5918 8.46094 10.5918C9.1901 10.5918 9.81771 10.3288 10.3438 9.80273C10.8698 9.27669 11.1328 8.64909 11.1328 7.91992C11.1328 7.19075 10.8698 6.56315 10.3438 6.03711C9.81771 5.51107 9.1901 5.24805 8.46094 5.24805ZM8.46094 9.24805C8.09635 9.24805 7.78385 9.11784 7.52344 8.85742C7.26302 8.597 7.13281 8.2845 7.13281 7.91992C7.13281 7.55534 7.26302 7.24284 7.52344 6.98242C7.78385 6.722 8.09635 6.5918 8.46094 6.5918C8.82552 6.5918 9.13802 6.722 9.39844 6.98242C9.65885 7.24284 9.78906 7.55534 9.78906 7.91992C9.78906 8.2845 9.65885 8.597 9.39844 8.85742C9.13802 9.11784 8.82552 9.24805 8.46094 9.24805Z" fill="white"/>
</g>
<defs>
<clipPath id="clip0_2_429">
<rect width="16" height="16" fill="white" transform="matrix(1 0 0 -1 0.460938 16.9199)"/>
</clipPath>
</defs>
</svg>
