<svg width="17" height="17" viewBox="0 0 17 17" fill="none" xmlns="http://www.w3.org/2000/svg">
<g clip-path="url(#clip0_2_62)">
<path d="M8.39711 0.927184C7.50155 0.927184 6.65689 1.10019 5.8631 1.4462C5.07949 1.79221 4.39256 2.26034 3.80231 2.85059C3.21206 3.44084 2.74393 4.12777 2.39792 4.91138C2.05191 5.70516 1.87891 6.54983 1.87891 7.44538C1.87891 8.64624 2.1893 9.78604 2.81008 10.8648C3.43086 11.9435 4.11779 12.8899 4.87087 13.7041C5.62395 14.5182 6.32105 15.1695 6.96219 15.658C7.6135 16.1465 7.95951 16.406 8.00021 16.4365C8.07145 16.4671 8.14014 16.4951 8.20629 16.5205C8.27244 16.5459 8.33605 16.5587 8.39711 16.5587C8.45817 16.5587 8.52177 16.5459 8.58792 16.5205C8.65407 16.4951 8.72276 16.4671 8.794 16.4365C8.83471 16.406 9.18072 16.1465 9.83203 15.658C10.4732 15.1695 11.1703 14.5182 11.9233 13.7041C12.6764 12.8899 13.3634 11.9435 13.9841 10.8648C14.6049 9.78604 14.9153 8.64624 14.9153 7.44538C14.9153 6.54983 14.7423 5.70516 14.3963 4.91138C14.0503 4.12777 13.5822 3.44084 12.9919 2.85059C12.4017 2.26034 11.7147 1.79221 10.9311 1.4462C10.1373 1.10019 9.29266 0.927184 8.39711 0.927184ZM8.39711 15.1237C8.09181 14.8998 7.64403 14.5386 7.05378 14.0399C6.4737 13.5413 5.89872 12.951 5.32882 12.2692C4.75892 11.5873 4.26026 10.8292 3.83284 9.99466C3.40542 9.17034 3.19171 8.32058 3.19171 7.44538C3.19171 6.73301 3.32909 6.05626 3.60386 5.41513C3.87864 4.78417 4.25009 4.23462 4.71822 3.76649C5.18635 3.29836 5.73589 2.92691 6.36685 2.65214C7.00798 2.37737 7.68474 2.23998 8.39711 2.23998C9.10948 2.23998 9.78623 2.37737 10.4274 2.65214C11.0583 2.92691 11.6079 3.29836 12.076 3.76649C12.5441 4.23462 12.9156 4.78417 13.1904 5.41513C13.4651 6.05626 13.6025 6.73301 13.6025 7.44538C13.6025 8.32058 13.3888 9.17034 12.9614 9.99466C12.534 10.8292 12.0353 11.5873 11.4654 12.2692C10.8955 12.951 10.3205 13.5413 9.74044 14.0399C9.15019 14.5386 8.70241 14.8998 8.39711 15.1237ZM8.39711 4.83505C7.68474 4.83505 7.07159 5.09201 6.55766 5.60594C6.04374 6.11987 5.78677 6.73301 5.78677 7.44538C5.78677 8.15776 6.04374 8.77091 6.55766 9.28483C7.07159 9.79876 7.68474 10.0557 8.39711 10.0557C9.10948 10.0557 9.72263 9.79876 10.2366 9.28483C10.7505 8.77091 11.0074 8.15776 11.0074 7.44538C11.0074 6.73301 10.7505 6.11987 10.2366 5.60594C9.72263 5.09201 9.10948 4.83505 8.39711 4.83505ZM8.39711 8.74292C8.04092 8.74292 7.73562 8.61571 7.4812 8.36129C7.22678 8.10687 7.09957 7.80157 7.09957 7.44538C7.09957 7.0892 7.22678 6.7839 7.4812 6.52948C7.73562 6.27506 8.04092 6.14785 8.39711 6.14785C8.75329 6.14785 9.0586 6.27506 9.31301 6.52948C9.56743 6.7839 9.69464 7.0892 9.69464 7.44538C9.69464 7.80157 9.56743 8.10687 9.31301 8.36129C9.0586 8.61571 8.75329 8.74292 8.39711 8.74292Z" fill="white"/>
</g>
<defs>
<clipPath id="clip0_2_62">
<rect width="15.6315" height="15.8757" fill="white" transform="matrix(1 0 0 -1 0.581543 16.3603)"/>
</clipPath>
</defs>
</svg>
