<svg width="17" height="17" viewBox="0 0 17 17" fill="none" xmlns="http://www.w3.org/2000/svg">
<g clip-path="url(#clip0_2_432)">
<path d="M11.7891 1.91992H5.13281C4.5599 1.91992 4.08333 2.11263 3.70312 2.49805C3.32292 2.88346 3.13281 3.35742 3.13281 3.91992V14.5918C3.13281 15.1543 3.32292 15.6283 3.70312 16.0137C4.08333 16.3991 4.5599 16.5918 5.13281 16.5918H11.7891C12.362 16.5918 12.8385 16.3991 13.2188 16.0137C13.599 15.6283 13.7891 15.1543 13.7891 14.5918V3.91992C13.7891 3.35742 13.599 2.88346 13.2188 2.49805C12.8385 2.11263 12.362 1.91992 11.7891 1.91992ZM12.4609 14.5918C12.4609 14.7897 12.401 14.9486 12.2812 15.0684C12.1615 15.1882 11.9974 15.248 11.7891 15.248H5.13281C4.92448 15.248 4.76042 15.1882 4.64062 15.0684C4.52083 14.9486 4.46094 14.7897 4.46094 14.5918V3.91992C4.46094 3.722 4.52083 3.56055 4.64062 3.43555C4.76042 3.31055 4.92448 3.24805 5.13281 3.24805H11.7891C11.9974 3.24805 12.1615 3.31055 12.2812 3.43555C12.401 3.56055 12.4609 3.722 12.4609 3.91992V14.5918ZM7.99219 12.7793C7.92969 12.8522 7.88021 12.9251 7.84375 12.998C7.80729 13.071 7.78906 13.1543 7.78906 13.248C7.78906 13.3522 7.80729 13.4408 7.84375 13.5137C7.88021 13.5866 7.92969 13.6543 7.99219 13.7168C8.0651 13.7897 8.13542 13.8418 8.20312 13.873C8.27083 13.9043 8.35677 13.9199 8.46094 13.9199C8.5651 13.9199 8.65104 13.9043 8.71875 13.873C8.78646 13.8418 8.85677 13.7897 8.92969 13.7168C8.99219 13.6543 9.04167 13.5788 9.07812 13.4902C9.11458 13.4017 9.13281 13.321 9.13281 13.248C9.13281 13.1855 9.11458 13.11 9.07812 13.0215C9.04167 12.9329 8.99219 12.8522 8.92969 12.7793C8.79427 12.6543 8.63802 12.5918 8.46094 12.5918C8.28385 12.5918 8.1276 12.6543 7.99219 12.7793Z" fill="white"/>
</g>
<defs>
<clipPath id="clip0_2_432">
<rect width="16" height="16" fill="white" transform="matrix(1 0 0 -1 0.460938 16.9199)"/>
</clipPath>
</defs>
</svg>
