<svg width="25" height="24" viewBox="0 0 25 24" fill="none" xmlns="http://www.w3.org/2000/svg">
<path fill-rule="evenodd" clip-rule="evenodd" d="M7.68848 10C7.68848 8.74022 8.18892 7.53204 9.07972 6.64124C9.97052 5.75045 11.1787 5.25 12.4385 5.25C13.6983 5.25 14.9064 5.75045 15.7972 6.64124C16.688 7.53204 17.1885 8.74022 17.1885 10C17.1885 11.2598 16.688 12.468 15.7972 13.3588C14.9064 14.2496 13.6983 14.75 12.4385 14.75C11.1787 14.75 9.97052 14.2496 9.07972 13.3588C8.18892 12.468 7.68848 11.2598 7.68848 10ZM12.4385 6.75C11.5765 6.75 10.7499 7.09241 10.1404 7.7019C9.53089 8.3114 9.18848 9.13805 9.18848 10C9.18848 10.862 9.53089 11.6886 10.1404 12.2981C10.7499 12.9076 11.5765 13.25 12.4385 13.25C13.3004 13.25 14.1271 12.9076 14.7366 12.2981C15.3461 11.6886 15.6885 10.862 15.6885 10C15.6885 9.13805 15.3461 8.3114 14.7366 7.7019C14.1271 7.09241 13.3004 6.75 12.4385 6.75Z" fill="#4E43F1"/>
<path fill-rule="evenodd" clip-rule="evenodd" d="M3.96236 8.857C4.13329 6.7838 5.07759 4.85069 6.60778 3.44147C8.13796 2.03226 10.1421 1.24999 12.2224 1.25H12.6544C14.7346 1.24999 16.7388 2.03226 18.269 3.44147C19.7991 4.85069 20.7434 6.7838 20.9144 8.857C21.1046 11.1663 20.3912 13.4593 18.9244 15.253L14.1314 21.114C13.9262 21.3648 13.668 21.567 13.3752 21.7057C13.0824 21.8445 12.7624 21.9165 12.4384 21.9165C12.1143 21.9165 11.7944 21.8445 11.5016 21.7057C11.2088 21.567 10.9505 21.3648 10.7454 21.114L5.95236 15.253C4.48548 13.4593 3.77205 11.1663 3.96236 8.857ZM12.2224 2.75C10.5188 2.75026 8.8777 3.39103 7.62469 4.54512C6.37167 5.69921 5.5984 7.28225 5.45836 8.98C5.29996 10.9019 5.89365 12.8102 7.11436 14.303L11.9074 20.165C11.9718 20.2439 12.053 20.3074 12.145 20.351C12.237 20.3947 12.3375 20.4173 12.4394 20.4173C12.5412 20.4173 12.6418 20.3947 12.7338 20.351C12.8258 20.3074 12.9069 20.2439 12.9714 20.165L17.7644 14.303C18.9844 12.8099 19.5773 10.9016 19.4184 8.98C19.2783 7.28208 18.5049 5.6989 17.2517 4.54478C15.9984 3.39066 14.3571 2.75001 12.6534 2.75H12.2224Z" fill="#4E43F1"/>
</svg>
