<svg width="25" height="25" viewBox="0 0 25 25" fill="none" xmlns="http://www.w3.org/2000/svg">
<path d="M23.1299 3.82988C22.1723 4.50536 21.112 5.02199 19.9899 5.35988C19.3876 4.66739 18.5872 4.17657 17.6969 3.95381C16.8066 3.73104 15.8694 3.78708 15.012 4.11433C14.1545 4.44159 13.4183 5.02428 12.9029 5.7836C12.3874 6.54291 12.1176 7.44222 12.1299 8.35988V9.35988C10.3725 9.40545 8.63116 9.01569 7.06089 8.22533C5.49063 7.43496 4.1402 6.26852 3.12988 4.82988C3.12988 4.82988 -0.870117 13.8299 8.12988 17.8299C6.07041 19.2278 3.61704 19.9288 1.12988 19.8299C10.1299 24.8299 21.1299 19.8299 21.1299 8.32988C21.129 8.05133 21.1022 7.77347 21.0499 7.49988C22.0705 6.49337 22.7907 5.22259 23.1299 3.82988Z" stroke="white" stroke-width="2" stroke-linecap="round" stroke-linejoin="round"/>
</svg>
