<svg width="25" height="25" viewBox="0 0 25 25" fill="none" xmlns="http://www.w3.org/2000/svg">
<path d="M22.7901 7.25008C22.6713 6.77549 22.4294 6.34065 22.0887 5.98948C21.7481 5.63832 21.3208 5.38326 20.8501 5.25008C19.1301 4.83008 12.2501 4.83008 12.2501 4.83008C12.2501 4.83008 5.37008 4.83008 3.65008 5.29008C3.17933 5.42326 2.75206 5.67832 2.41143 6.02948C2.0708 6.38065 1.82887 6.81549 1.71008 7.29008C1.3953 9.03563 1.24132 10.8064 1.25008 12.5801C1.23886 14.3671 1.39285 16.1514 1.71008 17.9101C1.84104 18.3699 2.08839 18.7882 2.42823 19.1246C2.76806 19.4609 3.1889 19.7039 3.65008 19.8301C5.37008 20.2901 12.2501 20.2901 12.2501 20.2901C12.2501 20.2901 19.1301 20.2901 20.8501 19.8301C21.3208 19.6969 21.7481 19.4418 22.0887 19.0907C22.4294 18.7395 22.6713 18.3047 22.7901 17.8301C23.1024 16.0977 23.2564 14.3404 23.2501 12.5801C23.2613 10.793 23.1073 9.00878 22.7901 7.25008Z" stroke="white" stroke-width="2" stroke-linecap="round" stroke-linejoin="round"/>
<path d="M10 15.8501L15.75 12.5801L10 9.31006V15.8501Z" stroke="white" stroke-width="2" stroke-linecap="round" stroke-linejoin="round"/>
</svg>
